<svg width="49" height="43" viewBox="0 0 49 43" fill="none" xmlns="http://www.w3.org/2000/svg">
<path d="M5.92871 12.1893C5.92871 14.3625 6.79202 16.4468 8.32873 17.9835C9.86543 19.5202 11.9497 20.3835 14.1229 20.3835C16.2961 20.3835 18.3803 19.5202 19.917 17.9835C21.4537 16.4468 22.3171 14.3625 22.3171 12.1893C22.3171 10.0161 21.4537 7.93185 19.917 6.39515C18.3803 4.85844 16.2961 3.99513 14.1229 3.99513C11.9497 3.99513 9.86543 4.85844 8.32873 6.39515C6.79202 7.93185 5.92871 10.0161 5.92871 12.1893Z" stroke="white" stroke-width="3.67" stroke-linecap="round" stroke-linejoin="round"/>
<path d="M1.83203 40.8689V36.7718C1.83203 34.5986 2.69534 32.5144 4.23205 30.9777C5.76875 29.441 7.85297 28.5776 10.0262 28.5776H18.2204C20.3936 28.5776 22.4778 29.441 24.0145 30.9777C25.5512 32.5144 26.4145 34.5986 26.4145 36.7718V40.8689" stroke="white" stroke-width="3.67" stroke-linecap="round" stroke-linejoin="round"/>
<path d="M29.3867 2.02661C31.1493 2.47791 32.7116 3.503 33.8272 4.94027C34.9429 6.37755 35.5484 8.14526 35.5484 9.96471C35.5484 11.7842 34.9429 13.5519 33.8272 14.9892C32.7116 16.4264 31.1493 17.4515 29.3867 17.9028" stroke="white" stroke-width="3.67" stroke-linecap="round" stroke-linejoin="round"/>
<path d="M35.5402 38.8259V34.7288C35.5298 32.9203 34.9213 31.166 33.8097 29.7394C32.6981 28.3128 31.1457 27.2941 29.3945 26.8419" stroke="white" stroke-width="3.67" stroke-linecap="round" stroke-linejoin="round"/>
<path d="M40.5596 2.02661C42.3222 2.47791 43.8844 3.503 45.0001 4.94027C46.1157 6.37755 46.7213 8.14526 46.7213 9.96471C46.7213 11.7842 46.1157 13.5519 45.0001 14.9892C43.8844 16.4264 42.3222 17.4515 40.5596 17.9028" stroke="white" stroke-width="3.67" stroke-linecap="round" stroke-linejoin="round"/>
<path d="M46.713 37.7085V33.6115C46.7026 31.8029 46.0942 30.0486 44.9825 28.622C43.8709 27.1954 42.3185 26.1767 40.5674 25.7246" stroke="white" stroke-width="3.67" stroke-linecap="round" stroke-linejoin="round"/>
</svg>
