<svg width="41" height="37" viewBox="0 0 41 37" fill="none" xmlns="http://www.w3.org/2000/svg">
<path d="M16.3908 26.6418L16.3908 30.7389C16.3908 31.8255 16.8225 32.8676 17.5908 33.6359C18.3592 34.4043 19.4013 34.8359 20.4879 34.8359L34.8277 34.8359C35.9143 34.8359 36.9564 34.4043 37.7248 33.6359C38.4931 32.8676 38.9248 31.8255 38.9248 30.7389L38.9248 6.15634C38.9248 5.06973 38.4932 4.02762 37.7248 3.25927C36.9564 2.49091 35.9143 2.05926 34.8277 2.05926L20.4879 2.05926C19.4013 2.05926 18.3592 2.49091 17.5908 3.25926C16.8225 4.02762 16.3908 5.06973 16.3908 6.15634L16.3908 10.2534" stroke="white" stroke-width="3.67" stroke-linecap="round" stroke-linejoin="round"/>
<path d="M26.6338 18.4476L2.05128 18.4476L8.19691 24.5933" stroke="white" stroke-width="3.67" stroke-linecap="round" stroke-linejoin="round"/>
<path d="M8.19727 12.302L2.05164 18.4476" stroke="white" stroke-width="3.67" stroke-linecap="round" stroke-linejoin="round"/>
</svg>
