<svg width="29" height="41" viewBox="0 0 29 41" fill="none" xmlns="http://www.w3.org/2000/svg">
<path d="M6.46289 10.2052C6.46289 12.3784 7.3262 14.4626 8.86291 15.9993C10.3996 17.536 12.4838 18.3993 14.6571 18.3993C16.8303 18.3993 18.9145 17.536 20.4512 15.9993C21.9879 14.4626 22.8512 12.3784 22.8512 10.2052C22.8512 8.03194 21.9879 5.94772 20.4512 4.41102C18.9145 2.87431 16.8303 2.011 14.6571 2.011C12.4838 2.011 10.3996 2.87431 8.86291 4.41102C7.3262 5.94772 6.46289 8.03194 6.46289 10.2052Z" stroke="white" stroke-width="3.67" stroke-linecap="round" stroke-linejoin="round"/>
<path d="M2.36621 38.8848V34.7877C2.36621 32.6144 3.22952 30.5302 4.76623 28.9935C6.30293 27.4568 8.38715 26.5935 10.5604 26.5935H18.7546C20.9278 26.5935 23.012 27.4568 24.5487 28.9935C26.0854 30.5302 26.9487 32.6144 26.9487 34.7877V38.8848" stroke="white" stroke-width="3.67" stroke-linecap="round" stroke-linejoin="round"/>
</svg>
