<svg width="38" height="34" viewBox="0 0 38 34" fill="none" xmlns="http://www.w3.org/2000/svg">
<path d="M32.765 17.7902L19.015 31.4082L5.26504 17.7902C4.3581 16.9077 3.64372 15.8469 3.16688 14.6747C2.69004 13.5025 2.46107 12.2443 2.49439 10.9792C2.52771 9.71421 2.8226 8.46978 3.36049 7.32432C3.89838 6.17885 4.66762 5.15717 5.61976 4.3236C6.57191 3.49003 7.68633 2.86263 8.89286 2.48092C10.0994 2.0992 11.3719 1.97144 12.6302 2.10567C13.8885 2.2399 15.1055 2.63322 16.2043 3.26086C17.3032 3.8885 18.2602 4.73687 19.015 5.75253C19.7732 4.74424 20.7313 3.90329 21.8294 3.28231C22.9275 2.66133 24.1419 2.27369 25.3967 2.14366C26.6516 2.01362 27.9197 2.14398 29.1218 2.52659C30.3239 2.90919 31.4341 3.5358 32.3829 4.3672C33.3317 5.1986 34.0987 6.21689 34.6358 7.35834C35.173 8.49979 35.4687 9.73982 35.5046 11.0008C35.5405 12.2618 35.3157 13.5167 34.8443 14.6868C34.3729 15.857 33.665 16.9172 32.765 17.8012" stroke="white" stroke-width="3.66667" stroke-linecap="round" stroke-linejoin="round"/>
</svg>
