<svg width="38" height="38" viewBox="0 0 38 38" fill="none" xmlns="http://www.w3.org/2000/svg">
<path d="M2.5 13.2051C2.5 14.1776 2.88631 15.1102 3.57394 15.7978C4.26158 16.4855 5.19421 16.8718 6.16667 16.8718C7.13913 16.8718 8.07176 16.4855 8.75939 15.7978C9.44703 15.1102 9.83333 14.1776 9.83333 13.2051C9.83333 12.2327 9.44703 11.3 8.75939 10.6124C8.07176 9.92476 7.13913 9.53845 6.16667 9.53845C5.19421 9.53845 4.26158 9.92476 3.57394 10.6124C2.88631 11.3 2.5 12.2327 2.5 13.2051Z" stroke="white" stroke-width="3.66667" stroke-linecap="round" stroke-linejoin="round"/>
<path d="M6.16699 2.20508V9.53841" stroke="white" stroke-width="3.66667" stroke-linecap="round" stroke-linejoin="round"/>
<path d="M6.16699 16.8718V31.5385" stroke="white" stroke-width="3.66667" stroke-linecap="round" stroke-linejoin="round"/>
<path d="M17.167 2.20508V19.6217" stroke="white" stroke-width="3.66667" stroke-linecap="round" stroke-linejoin="round"/>
<path d="M24.5 7.70512C24.5 8.67758 24.8863 9.61021 25.5739 10.2978C26.2616 10.9855 27.1942 11.3718 28.1667 11.3718C29.1391 11.3718 30.0718 10.9855 30.7594 10.2978C31.447 9.61021 31.8333 8.67758 31.8333 7.70512C31.8333 6.73266 31.447 5.80003 30.7594 5.11239C30.0718 4.42476 29.1391 4.03845 28.1667 4.03845C27.1942 4.03845 26.2616 4.42476 25.5739 5.11239C24.8863 5.80003 24.5 6.73266 24.5 7.70512Z" stroke="white" stroke-width="3.66667" stroke-linecap="round" stroke-linejoin="round"/>
<path d="M28.167 2.20508V4.03841" stroke="white" stroke-width="3.66667" stroke-linecap="round" stroke-linejoin="round"/>
<path d="M27.8008 33.0363L23.8188 35.1226C23.7006 35.1841 23.5677 35.2116 23.4348 35.2019C23.3019 35.1922 23.1744 35.1458 23.0663 35.0678C22.9583 34.9899 22.8741 34.8834 22.8231 34.7604C22.7721 34.6373 22.7563 34.5025 22.7774 34.3709L23.5383 29.9508L20.3171 26.8213C20.221 26.7283 20.1529 26.6102 20.1206 26.4804C20.0884 26.3507 20.0933 26.2144 20.1348 26.0873C20.1763 25.9602 20.2527 25.8473 20.3553 25.7615C20.4578 25.6757 20.5825 25.6205 20.7149 25.6021L25.1663 24.9568L27.1573 20.9363C27.2168 20.8165 27.3086 20.7158 27.4223 20.6453C27.5359 20.5749 27.667 20.5376 27.8008 20.5376C27.9345 20.5376 28.0656 20.5749 28.1793 20.6453C28.2929 20.7158 28.3847 20.8165 28.4443 20.9363L30.4353 24.9568L34.8866 25.6021C35.0187 25.6211 35.1428 25.6767 35.2449 25.7626C35.3471 25.8484 35.4231 25.9612 35.4645 26.088C35.5059 26.2149 35.511 26.3508 35.4792 26.4804C35.4473 26.6099 35.3799 26.728 35.2844 26.8213L32.0633 29.9508L32.8223 34.3691C32.845 34.5009 32.8304 34.6364 32.7801 34.7602C32.7297 34.8841 32.6456 34.9914 32.5373 35.0698C32.4291 35.1483 32.301 35.1949 32.1676 35.2042C32.0342 35.2135 31.9009 35.1853 31.7828 35.1226L27.8008 33.0363Z" stroke="white" stroke-width="3.66667" stroke-linecap="round" stroke-linejoin="round"/>
<path d="M28.167 11.3718V13.2052" stroke="white" stroke-width="3.66667" stroke-linecap="round" stroke-linejoin="round"/>
</svg>
