<svg width="37" height="38" viewBox="0 0 37 38" fill="none" xmlns="http://www.w3.org/2000/svg">
<path d="M5.66081 17.104C6.63327 17.104 7.5659 17.4903 8.25353 18.1779C8.94117 18.8656 9.32747 19.7982 9.32747 20.7707V24.4373H27.6608V20.7707C27.6608 19.7982 28.0471 18.8656 28.7348 18.1779C29.4224 17.4903 30.355 17.104 31.3275 17.104C32.2999 17.104 33.2326 17.4903 33.9202 18.1779C34.6078 18.8656 34.9941 19.7982 34.9941 20.7707V28.104C34.9941 29.0765 34.6078 30.0091 33.9202 30.6967C33.2326 31.3844 32.2999 31.7707 31.3275 31.7707H5.66081C4.68835 31.7707 3.75572 31.3844 3.06808 30.6967C2.38045 30.0091 1.99414 29.0765 1.99414 28.104V20.7707C1.99414 19.7982 2.38045 18.8656 3.06808 18.1779C3.75572 17.4903 4.68835 17.104 5.66081 17.104Z" stroke="white" stroke-width="3.66667" stroke-linecap="round" stroke-linejoin="round"/>
<path d="M5.66064 17.104V7.93738C5.66064 6.47869 6.24011 5.07974 7.27156 4.04829C8.30301 3.01684 9.70195 2.43738 11.1606 2.43738H25.8273C27.286 2.43738 28.6849 3.01684 29.7164 4.04829C30.7478 5.07974 31.3273 6.47869 31.3273 7.93738V17.104" stroke="white" stroke-width="3.66667" stroke-linecap="round" stroke-linejoin="round"/>
<path d="M7.49414 31.7708V35.4374" stroke="white" stroke-width="3.66667" stroke-linecap="round" stroke-linejoin="round"/>
<path d="M29.4941 31.7708V35.4374" stroke="white" stroke-width="3.66667" stroke-linecap="round" stroke-linejoin="round"/>
</svg>
